<svg xmlns="http://www.w3.org/2000/svg" viewBox="0 0 240 320" role="img" aria-label="윤재호 shocked cartoon portrait">
  <defs>
    <linearGradient id="paper" x1="0" x2="1" y1="0" y2="1"><stop stop-color="#1b2330"/><stop offset="1" stop-color="#07090d"/></linearGradient>
    <filter id="ink"><feDropShadow dx="0" dy="8" stdDeviation="4" flood-color="#000" flood-opacity=".55"/></filter>
  </defs>
  <rect width="240" height="320" rx="22" fill="url(#paper)"/>
  <path d="M20 249 C58 218 178 218 220 249 L220 320 L20 320 Z" fill="#2f3840" stroke="#08080b" stroke-width="7"/>
  <path d="M78 224 L121 270 L164 224 L153 320 L88 320 Z" fill="#efe3ca" stroke="#08080b" stroke-width="5"/>
  <path d="M74 58 C91 25 153 22 179 60 C205 96 191 173 164 202 C139 229 96 227 73 199 C45 165 46 98 74 58 Z" fill="#dfb896" stroke="#0b090d" stroke-width="7" filter="url(#ink)"/>
  <path d="M68 81 C72 25 160 15 190 75 C163 60 125 64 91 81 C78 106 66 120 49 128 C49 107 55 91 68 81 Z" fill="#bfc5c7" stroke="#0b090d" stroke-width="7" stroke-linejoin="round"/>
  <path d="M69 92 C83 75 101 67 123 67 C147 66 165 72 183 89" fill="none" stroke="#c7b07a" stroke-width="4" stroke-linecap="round" opacity=".75"/>
  <path d="M65 76 Q84 64 104 79 M132 79 Q151 64 171 76" fill="none" stroke="#171018" stroke-width="6" stroke-linecap="round"/>
  <ellipse cx="88" cy="107" rx="13" ry="16" fill="#fff1dc" stroke="#171219" stroke-width="4"/><circle cx="88" cy="109" r="6" fill="#171219"/><ellipse cx="151" cy="107" rx="13" ry="16" fill="#fff1dc" stroke="#171219" stroke-width="4"/><circle cx="151" cy="109" r="6" fill="#171219"/>
  <path d="M119 116 Q112 132 121 138" fill="none" stroke="#9b6753" stroke-width="4" stroke-linecap="round"/>
  <ellipse cx="121" cy="150" rx="16" ry="18" fill="#261014" stroke="#12070a" stroke-width="4"/>
  <path d="M122 30 v28 M72 43 l15 23 M173 43 l-16 23" stroke="#f3d26f" stroke-width="6" stroke-linecap="round"/>
  <path d="M39 246 L90 216 M202 246 L153 216" stroke="#0b090d" stroke-width="5"/>
  <rect x="14" y="14" width="212" height="292" rx="18" fill="none" stroke="#e7c06b" stroke-width="3" stroke-dasharray="10 8" opacity=".65"/>
  <text x="24" y="292" fill="#f4d58a" font-family="sans-serif" font-size="20" font-weight="800">윤재호</text>
  <text x="24" y="312" fill="#b6c2cf" font-family="sans-serif" font-size="13">집사 · shocked</text>
</svg>