<svg xmlns="http://www.w3.org/2000/svg" viewBox="0 0 240 320" role="img" aria-label="최유나 anxious cartoon portrait">
  <defs>
    <linearGradient id="paper" x1="0" x2="1" y1="0" y2="1"><stop stop-color="#1b2330"/><stop offset="1" stop-color="#07090d"/></linearGradient>
    <filter id="ink"><feDropShadow dx="0" dy="8" stdDeviation="4" flood-color="#000" flood-opacity=".55"/></filter>
  </defs>
  <rect width="240" height="320" rx="22" fill="url(#paper)"/>
  <path d="M20 249 C58 218 178 218 220 249 L220 320 L20 320 Z" fill="#234152" stroke="#08080b" stroke-width="7"/>
  <path d="M78 224 L121 270 L164 224 L153 320 L88 320 Z" fill="#efe3ca" stroke="#08080b" stroke-width="5"/>
  <path d="M74 58 C91 25 153 22 179 60 C205 96 191 173 164 202 C139 229 96 227 73 199 C45 165 46 98 74 58 Z" fill="#e9bd98" stroke="#0b090d" stroke-width="7" filter="url(#ink)"/>
  <path d="M68 81 C72 25 160 15 190 75 C163 60 125 64 91 81 C78 106 66 120 49 128 C49 107 55 91 68 81 Z" fill="#472615" stroke="#0b090d" stroke-width="7" stroke-linejoin="round"/>
  <path d="M69 92 C83 75 101 67 123 67 C147 66 165 72 183 89" fill="none" stroke="#b94646" stroke-width="4" stroke-linecap="round" opacity=".75"/>
  <path d="M66 82 Q84 70 103 84 M132 84 Q150 70 170 82" fill="none" stroke="#171018" stroke-width="6" stroke-linecap="round"/>
  <path d="M76 105 Q88 97 101 105 M136 105 Q150 97 163 105" fill="none" stroke="#16121a" stroke-width="5" stroke-linecap="round"/>
  <path d="M119 116 Q112 132 121 138" fill="none" stroke="#9b6753" stroke-width="4" stroke-linecap="round"/>
  <path d="M99 151 Q120 159 143 151" fill="none" stroke="#1b1014" stroke-width="5" stroke-linecap="round"/>
  <path d="M178 96 q16 20 0 42" fill="none" stroke="#7bb0cf" stroke-width="4"/><circle cx="181" cy="143" r="5" fill="#7bb0cf"/>
  <path d="M39 246 L90 216 M202 246 L153 216" stroke="#0b090d" stroke-width="5"/>
  <rect x="14" y="14" width="212" height="292" rx="18" fill="none" stroke="#e7c06b" stroke-width="3" stroke-dasharray="10 8" opacity=".65"/>
  <text x="24" y="292" fill="#f4d58a" font-family="sans-serif" font-size="20" font-weight="800">최유나</text>
  <text x="24" y="312" fill="#b6c2cf" font-family="sans-serif" font-size="13">비서 · anxious</text>
</svg>