<svg xmlns="http://www.w3.org/2000/svg" viewBox="0 0 240 320" role="img" aria-label="박민규 confident_lying cartoon portrait">
  <defs>
    <linearGradient id="paper" x1="0" x2="1" y1="0" y2="1"><stop stop-color="#1b2330"/><stop offset="1" stop-color="#07090d"/></linearGradient>
    <filter id="ink"><feDropShadow dx="0" dy="8" stdDeviation="4" flood-color="#000" flood-opacity=".55"/></filter>
  </defs>
  <rect width="240" height="320" rx="22" fill="url(#paper)"/>
  <path d="M20 249 C58 218 178 218 220 249 L220 320 L20 320 Z" fill="#ddd6c7" stroke="#08080b" stroke-width="7"/>
  <path d="M78 224 L121 270 L164 224 L153 320 L88 320 Z" fill="#efe3ca" stroke="#08080b" stroke-width="5"/>
  <path d="M74 58 C91 25 153 22 179 60 C205 96 191 173 164 202 C139 229 96 227 73 199 C45 165 46 98 74 58 Z" fill="#d8ad8f" stroke="#0b090d" stroke-width="7" filter="url(#ink)"/>
  <path d="M68 81 C72 25 160 15 190 75 C163 60 125 64 91 81 C78 106 66 120 49 128 C49 107 55 91 68 81 Z" fill="#1d1c1e" stroke="#0b090d" stroke-width="7" stroke-linejoin="round"/>
  <path d="M69 92 C83 75 101 67 123 67 C147 66 165 72 183 89" fill="none" stroke="#5c7390" stroke-width="4" stroke-linecap="round" opacity=".75"/>
  <path d="M66 82 Q84 74 102 82 M132 82 Q151 74 170 82" fill="none" stroke="#171018" stroke-width="6" stroke-linecap="round"/>
  <path d="M76 103 Q87 109 99 103 M138 103 Q151 109 164 103" fill="none" stroke="#16121a" stroke-width="5" stroke-linecap="round"/>
  <path d="M119 116 Q112 132 121 138" fill="none" stroke="#9b6753" stroke-width="4" stroke-linecap="round"/>
  <path d="M98 146 Q120 162 144 146" fill="none" stroke="#1b1014" stroke-width="5" stroke-linecap="round"/>
  <path d="M157 145 q26 -7 36 13" fill="none" stroke="#8a1018" stroke-width="4"/><circle cx="193" cy="160" r="4" fill="#8a1018"/>
  <path d="M39 246 L90 216 M202 246 L153 216" stroke="#0b090d" stroke-width="5"/>
  <rect x="14" y="14" width="212" height="292" rx="18" fill="none" stroke="#e7c06b" stroke-width="3" stroke-dasharray="10 8" opacity=".65"/>
  <text x="24" y="292" fill="#f4d58a" font-family="sans-serif" font-size="20" font-weight="800">박민규</text>
  <text x="24" y="312" fill="#b6c2cf" font-family="sans-serif" font-size="13">주치의 · confident_lying</text>
</svg>